HIERARCHY
ROOT Hips
{
  OFFSET 5.84602e-005 68.8428 3.50346
  CHANNELS 6 Xposition Yposition Zposition Zrotation Xrotation Yrotation
  JOINT Spine
  {
    OFFSET 0 8.597 -4.6522
    CHANNELS 3 Zrotation Xrotation Yrotation
    JOINT Spine1
    {
      OFFSET 0 7.8454 0.4098
      CHANNELS 3 Zrotation Xrotation Yrotation
      JOINT Spine2
      {
        OFFSET 0 9.7078 -2.1609
        CHANNELS 3 Zrotation Xrotation Yrotation
        JOINT Neck
        {
          OFFSET 0 21.8761 -0.4549
          CHANNELS 3 Zrotation Xrotation Yrotation
          JOINT Head
          {
            OFFSET 0 12.3537 3.3602
            CHANNELS 3 Zrotation Xrotation Yrotation
            End Site
            {
              OFFSET 0.0001 18.9506 0.5657
            }
          }
        }
        JOINT LeftShoulder
        {
          OFFSET 2.2086 21.1115 7.2329
          CHANNELS 3 Zrotation Xrotation Yrotation
          JOINT LeftArm
          {
            OFFSET 13.1193 3.0282 -4.8998
            CHANNELS 3 Zrotation Xrotation Yrotation
            JOINT LeftForeArm
            {
              OFFSET 27.4081 -0.0973053 -0.2375
              CHANNELS 3 Zrotation Xrotation Yrotation
              JOINT LeftHand
              {
                OFFSET 22.8641 0.0662994 -0.1369
                CHANNELS 3 Zrotation Xrotation Yrotation
                JOINT LeftHandIndex1
                {
                  OFFSET 8.8614 0.775009 2.4612
                  CHANNELS 3 Zrotation Xrotation Yrotation
                  JOINT LeftHandIndex2
                  {
                    OFFSET 3.3146 -0.808304 0.5841
                    CHANNELS 3 Zrotation Xrotation Yrotation
                    JOINT LeftHandIndex3
                    {
                      OFFSET 2.2628 -0.552002 0.3989
                      CHANNELS 3 Zrotation Xrotation Yrotation
                      End Site
                      {
                        OFFSET 1.6102 -0.4807 0.2612
                      }
                    }
                  }
                }
                JOINT LeftHandMiddle1
                {
                  OFFSET 8.9937 0.895004 0.2143
                  CHANNELS 3 Zrotation Xrotation Yrotation
                  JOINT LeftHandMiddle2
                  {
                    OFFSET 4.0984 0.0113983 -0.0242
                    CHANNELS 3 Zrotation Xrotation Yrotation
                    JOINT LeftHandMiddle3
                    {
                      OFFSET 2.2716 0.00689697 -0.0138001
                      CHANNELS 3 Zrotation Xrotation Yrotation
                      End Site
                      {
                        OFFSET 2.0404 -0.1441 0.0027
                      }
                    }
                  }
                }
                JOINT LeftHandRing1
                {
                  OFFSET 8.5234 0.597198 -2.0164
                  CHANNELS 3 Zrotation Xrotation Yrotation
                  JOINT LeftHandRing2
                  {
                    OFFSET 3.7188 -0.188293 -0.2328
                    CHANNELS 3 Zrotation Xrotation Yrotation
                    JOINT LeftHandRing3
                    {
                      OFFSET 2.1191 -0.106598 -0.1332
                      CHANNELS 3 Zrotation Xrotation Yrotation
                      End Site
                      {
                        OFFSET 1.8737 -0.2304 -0.0886
                      }
                    }
                  }
                }
                JOINT LeftHandPinky1
                {
                  OFFSET 7.9094 -0.601089 -3.4825
                  CHANNELS 3 Zrotation Xrotation Yrotation
                  JOINT LeftHandPinky2
                  {
                    OFFSET 2.2874 -0.477005 -0.6314
                    CHANNELS 3 Zrotation Xrotation Yrotation
                    JOINT LeftHandPinky3
                    {
                      OFFSET 1.6774 -0.349396 -0.4633
                      CHANNELS 3 Zrotation Xrotation Yrotation
                      End Site
                      {
                        OFFSET 1.4888 -0.4091 -0.3416
                      }
                    }
                  }
                }
                JOINT LeftHandThumb1
                {
                  OFFSET 1.833 -1.3875 1.3896
                  CHANNELS 3 Zrotation Xrotation Yrotation
                  JOINT LeftHandThumb2
                  {
                    OFFSET 3.4129 -1.121 2.5732
                    CHANNELS 3 Zrotation Xrotation Yrotation
                    JOINT LeftHandThumb3
                    {
                      OFFSET 2.2474 -0.804199 1.6192
                      CHANNELS 3 Zrotation Xrotation Yrotation
                      End Site
                      {
                        OFFSET 1.6527 -0.5689 1.1317
                      }
                    }
                  }
                }
              }
            }
          }
        }
        JOINT RightShoulder
        {
          OFFSET -2.2086 21.1115 7.2329
          CHANNELS 3 Zrotation Xrotation Yrotation
          JOINT RightArm
          {
            OFFSET -13.1216 3.0287 -4.9007
            CHANNELS 3 Zrotation Xrotation Yrotation
            JOINT RightForeArm
            {
              OFFSET -27.4081 -0.0973053 -0.2375
              CHANNELS 3 Zrotation Xrotation Yrotation
              JOINT RightHand
              {
                OFFSET -22.8641 0.0664063 -0.1369
                CHANNELS 3 Zrotation Xrotation Yrotation
                JOINT RightHandIndex1
                {
                  OFFSET -8.8614 0.774994 2.4612
                  CHANNELS 3 Zrotation Xrotation Yrotation
                  JOINT RightHandIndex2
                  {
                    OFFSET -3.3146 -0.808304 0.5841
                    CHANNELS 3 Zrotation Xrotation Yrotation
                    JOINT RightHandIndex3
                    {
                      OFFSET -2.2628 -0.552002 0.3989
                      CHANNELS 3 Zrotation Xrotation Yrotation
                      End Site
                      {
                        OFFSET -1.6102 -0.4807 0.2612
                      }
                    }
                  }
                }
                JOINT RightHandMiddle1
                {
                  OFFSET -8.9937 0.894989 0.2143
                  CHANNELS 3 Zrotation Xrotation Yrotation
                  JOINT RightHandMiddle2
                  {
                    OFFSET -4.0984 0.0113983 -0.0242
                    CHANNELS 3 Zrotation Xrotation Yrotation
                    JOINT RightHandMiddle3
                    {
                      OFFSET -2.2716 0.00691223 -0.0138001
                      CHANNELS 3 Zrotation Xrotation Yrotation
                      End Site
                      {
                        OFFSET -2.0404 -0.1441 0.0027
                      }
                    }
                  }
                }
                JOINT RightHandRing1
                {
                  OFFSET -8.5234 0.597198 -2.0164
                  CHANNELS 3 Zrotation Xrotation Yrotation
                  JOINT RightHandRing2
                  {
                    OFFSET -3.7188 -0.188309 -0.2328
                    CHANNELS 3 Zrotation Xrotation Yrotation
                    JOINT RightHandRing3
                    {
                      OFFSET -2.1191 -0.106598 -0.1332
                      CHANNELS 3 Zrotation Xrotation Yrotation
                      End Site
                      {
                        OFFSET -1.8737 -0.2304 -0.0886
                      }
                    }
                  }
                }
                JOINT RightHandPinky1
                {
                  OFFSET -7.9094 -0.601105 -3.4825
                  CHANNELS 3 Zrotation Xrotation Yrotation
                  JOINT RightHandPinky2
                  {
                    OFFSET -2.2874 -0.477005 -0.6314
                    CHANNELS 3 Zrotation Xrotation Yrotation
                    JOINT RightHandPinky3
                    {
                      OFFSET -1.6774 -0.349396 -0.4633
                      CHANNELS 3 Zrotation Xrotation Yrotation
                      End Site
                      {
                        OFFSET -1.4888 -0.4091 -0.3416
                      }
                    }
                  }
                }
                JOINT RightHandThumb1
                {
                  OFFSET -1.833 -1.38751 1.3896
                  CHANNELS 3 Zrotation Xrotation Yrotation
                  JOINT RightHandThumb2
                  {
                    OFFSET -3.41299 -1.12099 2.5732
                    CHANNELS 3 Zrotation Xrotation Yrotation
                    JOINT RightHandThumb3
                    {
                      OFFSET -2.24741 -0.804108 1.6192
                      CHANNELS 3 Zrotation Xrotation Yrotation
                      End Site
                      {
                        OFFSET -1.6527 -0.5689 1.1317
                      }
                    }
                  }
                }
              }
            }
          }
        }
      }
    }
  }
  JOINT RightUpLeg
  {
    OFFSET -9.1966 3.8861 -0.7581
    CHANNELS 3 Zrotation Xrotation Yrotation
    JOINT RightLeg
    {
      OFFSET -0.7359 -41.0265 0
      CHANNELS 3 Zrotation Xrotation Yrotation
      JOINT RightFoot
      {
        OFFSET 0 -40.2855 0
        CHANNELS 3 Zrotation Xrotation Yrotation
        JOINT RightToeBase
        {
          OFFSET 0 -5.6122 11.7359
          CHANNELS 3 Zrotation Xrotation Yrotation
          End Site
          {
            OFFSET 0 0 7.8731
          }
        }
      }
    }
  }
  JOINT LeftUpLeg
  {
    OFFSET 9.1965 3.8864 -0.7581
    CHANNELS 3 Zrotation Xrotation Yrotation
    JOINT LeftLeg
    {
      OFFSET 0.7359 -41.0268 0
      CHANNELS 3 Zrotation Xrotation Yrotation
      JOINT LeftFoot
      {
        OFFSET 0 -40.2855 0
        CHANNELS 3 Zrotation Xrotation Yrotation
        JOINT LeftToeBase
        {
          OFFSET 0 -5.6122 11.7359
          CHANNELS 3 Zrotation Xrotation Yrotation
          End Site
          {
            OFFSET 0 0 7.8731
          }
        }
      }
    }
  }
}
MOTION
Frames:	4
Frame Time:	0.0333333
5.84602e-005 68.8428 3.50346 0 0 -0 0 0 -0 0 0 -0 0 0 -0 0 0 -0 0 0 -0 0 0 -0 0 0 -0 0 0 -0 0 0 -0 0 0 -0 0 0 -0 0 0 -0 0 0 -0 -0.0146107 -8.87603e-005 -2.63497e-007 2.99804e-018 -2.42657e-020 -1.42182e-022 0 0 -0 -0.0187562 -0.001176 5.858e-005 5.06224e-018 3.88251e-019 1.21329e-020 0 0 -0 -0.012269 -0.00324817 0.000675346 -1.74678e-018 3.88251e-019 -0 0 0 -0 0 0 -0 0 0 -0 0 0 -0 0 0 -0 0 0 -0 0 0 -0 0 0 -0 0 0 -0 0 0 -0 0 0 -0 0.0149955 -9.10982e-005 2.64101e-007 -9.69331e-018 1.21329e-020 -4.7394e-023 0 0 -0 0.0189956 -0.00119102 -5.96516e-005 -5.41541e-019 0 2.42657e-020 0 0 -0 0.0122698 -0.00324857 -0.000673756 -2.00796e-019 0 -1.94126e-019 0 0 -0 0 0 -0 0 0 -0 3.39842 1.33031 -0.0637918 -5.65207e-008 0.834868 -0.000436188 -3.39935 -2.16518 -0.0642563 -8.89002e-024 -1.18485e-023 -1.48106e-024 -3.39844 1.35642 0.0640283 -3.18788e-007 0.782166 -0.000588827 3.39931 -2.13858 0.0634662 1.1399e-023 0 -0 
39.7391 -0.937365 8.94727 -0 -72.0011 -0 -0.0122325 1.80157 -0.109019 -0.021049 3.60319 -0.217816 -0.021049 3.60316 -0.217816 -2.88159e-007 17.9983 2.46834e-006 9.53063e-008 8.99857 8.31284e-008 -12.5289 25.6944 -22.1355 -41.302 8.17275 -5.71627 -0.126602 10.622 -8.7192 -2.47247 37.3919 -19.8491 -6.36111e-015 6.95746e-016 -0 -3.18055e-015 -5.96354e-016 -0 -4.48287e-033 -1.2921e-015 -1.98785e-016 -6.36111e-015 6.95746e-016 -0 -0.0146151 -8.94016e-005 3.28002e-006 -3.18055e-015 0 3.97569e-016 -6.36111e-015 6.95746e-016 -0 -0.0187438 -0.00117579 5.8014e-005 -5.5063e-007 -2.46238e-007 5.12749e-008 -6.36111e-015 6.95746e-016 -0 -0.0122673 -0.00324932 0.000681211 -3.18055e-015 -4.96962e-016 1.98785e-016 -6.36111e-015 6.95746e-016 -0 -3.18055e-015 -5.96354e-016 -0 -4.48287e-033 -1.2921e-015 -1.98785e-016 13.6735 25.9931 21.902 40.5581 8.11363 5.61984 -0.142488 10.5936 8.56786 2.55033 37.4214 20.1734 6.36111e-015 2.08724e-015 1.98785e-016 6.36111e-015 1.49089e-015 -0 3.18055e-015 1.59028e-015 3.97569e-016 6.36111e-015 2.08724e-015 1.98785e-016 0.0150035 -9.17158e-005 -3.31425e-006 -6.36111e-015 2.98177e-016 -7.95139e-016 6.36111e-015 2.08724e-015 1.98785e-016 0.0190079 -0.0011921 -5.82834e-005 3.18055e-015 8.94531e-016 1.98785e-016 6.36111e-015 2.08724e-015 1.98785e-016 0.0122772 -0.00324919 -0.000673206 5.50895e-007 -1.53929e-007 -7.83228e-008 6.36111e-015 2.08724e-015 1.98785e-016 6.36111e-015 1.49089e-015 -0 3.18055e-015 1.59028e-015 3.97569e-016 177.408 -8.76228 169.437 -166.312 40.6566 135.501 -1.726 50.5734 -8.23475 1.44873e-006 2.85411e-007 -7.52425e-007 -177.42 -8.7687 -169.452 166.349 40.6745 -135.554 1.69899 50.5436 8.25014 -5.63831e-007 3.32165e-006 -8.64553e-007 
39.7402 -0.785801 9.06454 -0 -72.8876 -0 -0.0130912 2.02287 -0.108699 -0.0223605 4.0457 -0.217139 -0.0223605 4.04569 -0.217139 -3.90962e-006 17.5275 1.33868e-006 -5.09306e-008 8.779 3.15753e-008 -11.0939 24.9617 -22.4551 -42.1602 8.29892 -5.67871 -0.517546 10.6908 -9.80236 -3.19174 37.3066 -18.8648 -5.42623e-007 -2.4071e-007 5.16127e-008 6.36111e-015 2.98177e-016 -0 6.36111e-015 7.95139e-016 3.97569e-016 -5.42623e-007 -2.4071e-007 5.16127e-008 -0.0146171 -8.68139e-005 -7.82344e-006 6.36111e-015 -1.98785e-016 1.98785e-016 -5.42623e-007 -2.4071e-007 5.16127e-008 -0.0187687 -0.001175 5.22999e-005 -5.40995e-007 -2.40616e-007 5.15742e-008 -5.42623e-007 -2.4071e-007 5.16127e-008 -0.0122841 -0.00325103 0.000669442 -5.41558e-007 -2.4043e-007 5.15442e-008 -5.42623e-007 -2.4071e-007 5.16127e-008 6.36111e-015 2.98177e-016 -0 6.36111e-015 7.95139e-016 3.97569e-016 12.1894 25.2454 22.2491 41.4726 8.24465 5.5974 0.253445 10.6602 9.6327 3.25583 37.3372 19.1904 3.18055e-015 2.98177e-016 1.98785e-016 -5.42334e-007 1.48589e-007 7.86314e-008 5.42334e-007 -1.48589e-007 -7.86314e-008 3.18055e-015 2.98177e-016 1.98785e-016 0.0149922 -9.13792e-005 -1.97083e-006 -3.18055e-015 -1.98785e-016 3.97569e-016 3.18055e-015 2.98177e-016 1.98785e-016 0.0189922 -0.00119205 -6.30444e-005 2.06902e-033 5.96354e-016 -1.98785e-016 3.18055e-015 2.98177e-016 1.98785e-016 0.0122564 -0.00324443 -0.000673302 3.18055e-015 -5.96354e-016 -0 3.18055e-015 2.98177e-016 1.98785e-016 -5.42334e-007 1.48589e-007 7.86314e-008 5.42334e-007 -1.48589e-007 -7.86314e-008 177.532 -9.6793 169.48 -166.309 40.6631 135.499 -1.72804 50.5778 -8.2331 1.44871e-006 2.85145e-007 -7.51512e-007 -177.36 -9.63625 -169.401 166.35 40.671 -135.554 1.69782 50.541 8.25149 2.20171e-006 -6.96189e-007 6.95271e-007 
39.7412 -0.634412 9.1799 -0 -73.7749 -0 -0.0139525 2.24445 -0.10837 -0.0236801 4.48893 -0.216442 -0.0236802 4.48893 -0.216442 -4.51136e-008 17.0551 1.24863e-006 -8.39498e-008 8.55927 4.25515e-008 -9.66764 24.2199 -22.7535 -43.0196 8.42464 -5.63918 -0.907921 10.767 -10.8873 -3.90874 37.2114 -17.8823 3.18055e-015 -1.2921e-014 3.97569e-016 8.55194e-032 -1.23246e-014 3.97569e-016 4.37942e-032 -1.26228e-014 1.98785e-016 3.18055e-015 -1.2921e-014 3.97569e-016 -0.0146053 -8.96985e-005 -8.57376e-007 -0 -2.98177e-016 -0 3.18055e-015 -1.2921e-014 3.97569e-016 -0.0187649 -0.00117856 6.50393e-005 -2.22639e-014 2.98177e-016 -1.19271e-015 3.18055e-015 -1.2921e-014 3.97569e-016 -0.0122775 -0.00324954 0.000682986 0 3.97569e-016 -0 3.18055e-015 -1.2921e-014 3.97569e-016 8.55194e-032 -1.23246e-014 3.97569e-016 4.37942e-032 -1.26228e-014 1.98785e-016 10.7149 24.4876 22.5737 42.3885 8.37546 5.5728 0.648843 10.7342 10.6992 3.95913 37.2434 18.2092 -6.36111e-015 0 -0 -6.36111e-015 0 1.98785e-016 -6.36111e-015 -9.93923e-017 1.98785e-016 -6.36111e-015 0 -0 0.0149915 -8.94517e-005 5.61154e-008 -6.36111e-015 -5.96354e-016 -3.97569e-016 -6.36111e-015 0 -0 0.0190126 -0.00119484 -6.57453e-005 3.18055e-015 1.19271e-015 -0 -6.36111e-015 0 -0 0.0122721 -0.00324753 -0.000675681 5.31705e-007 -1.43336e-007 -7.87377e-008 -6.36111e-015 0 -0 -6.36111e-015 0 1.98785e-016 -6.36111e-015 -9.93923e-017 1.98785e-016 177.656 -10.581 169.526 -166.313 40.6542 135.503 -1.73009 50.5822 -8.23147 -2.01839e-006 2.61253e-006 -8.00341e-008 -177.299 -10.5081 -169.35 166.351 40.6708 -135.553 1.69662 50.5384 8.25286 -8.77164e-007 3.18228e-006 1.57451e-006 
